<svg width="472" height="413" viewBox="0 0 472 413" fill="none" xmlns="http://www.w3.org/2000/svg">
<path fill-rule="evenodd" clip-rule="evenodd" d="M357.823 280.73L235.805 172.329L113.722 280.789L0.71875 180.396C10.1314 165.178 22.096 150.872 36.6125 137.976L86.5533 93.6082C169.13 20.2468 303.012 20.2469 385.588 93.6083L435.529 137.976C449.925 150.765 461.811 164.94 471.187 180.017L357.823 280.73Z" fill="#98DF8A"/>
<path fill-rule="evenodd" clip-rule="evenodd" d="M328.482 306.061L235.875 225.139L143.218 306.106L63 236.009C72.1394 216.707 85.687 198.624 103.643 182.933C176.782 119.022 295.364 119.022 368.503 182.933C386.363 198.541 399.863 216.516 409 235.702L328.482 306.061Z" fill="#D9D9D9"/>
<rect x="235.848" y="189.541" width="147.497" height="147.497" transform="rotate(45 235.848 189.541)" fill="#D9D9D9" stroke="black" stroke-width="4.40722"/>
<circle cx="343" cy="294" r="12" fill="black"/>
<circle cx="236" cy="401" r="12" fill="black"/>
<circle cx="128" cy="294" r="12" fill="black"/>
<circle cx="236" cy="186" r="12" fill="black"/>
</svg>
